# xmcd
# 
# Track frame offsets:
#     150
#     17850
#     33836
#     49619
#     62799
#     74094
#     92005
#     105407
#     120609
#     133569
# 
# Disc length: 1991
# 
# Revision: 0
# Processed by: cddbd v1.5.2PL0 Copyright (c) Steve Scherf et al.
# Submitted via: fre:ac v1.0.27
# 
DISCID=8407c50a
DTITLE=Don Holiman - Old Songs and You
DYEAR=2017
DGENRE=Country
TTITLE0=50 Years Too Late
TTITLE1=Don't Cry to Me
TTITLE2=It's Been a Long Time
TTITLE3=Watch Me
TTITLE4=Like I Do
TTITLE5=Old Songs and You
TTITLE6=Catching Up To Yesterday
TTITLE7=Blood From A Stone
TTITLE8=Dancing Too Close To The Flame
TTITLE9=Executive Decision
EXTD=
EXTT0=
EXTT1=
EXTT2=
EXTT3=
EXTT4=
EXTT5=
EXTT6=
EXTT7=
EXTT8=
EXTT9=
PLAYORDER=
